# xmcd
#
# Track frame offsets: 
#        150
#        11049
#        21630
#        47479
#        61628
#        76453
#        93072
#        110731
#        123034
#        137573
#        158742
#        177727
#        193878
#        208027
#
# Disc length: 3068 seconds
#
# Revision: 0
# Processed by: cddbd v1.5.2PL0 Copyright (c) Steve Scherf et al.
# Submitted via: ExactAudioCopy v0.95a5
#
DISCID=bb0bfa0e
DTITLE=Various Artist - #1 R&B Hits [CD3)
DYEAR=2008
DGENRE=R&B
TTITLE0=Hank Ballard - Let's Go, Let's Go, Let's Go
TTITLE1=Wilbert Harrison - Kansas City
TTITLE2=The Brothers Johnson - Strawberry Letter 23 (Live)
TTITLE3=The Miracles - You've Really Got A Hold On Me
TTITLE4=James Brown - Get On The Good Foot (Live)
TTITLE5=Harold Melvin and The Blue Notes - Hope That We Can Be Together 
TTITLE5=Soon
TTITLE6=Marvin Gaye - I Heard It Through The Grapevine (Live)
TTITLE7=The Miracles - I Second That Emotion
TTITLE8=Ben E. King - Stand By Me
TTITLE9=Marvin Gaye - Got To Give It Up (Live)
TTITLE10=James Brown - It's A Man's Man's Man's World (Live)
TTITLE11=Harold Melvin and The Blue Notes - If You Don't Know Me By Now
TTITLE12=The Spinners - I'll Be Around (Live)
TTITLE13=Rose Royce - Car Wash
EXTD=
EXTT0=
EXTT1=
EXTT2=
EXTT3=
EXTT4=
EXTT5=
EXTT6=
EXTT7=
EXTT8=
EXTT9=
EXTT10=
EXTT11=
EXTT12=
EXTT13=
PLAYORDER=
